<?xml version="1.0" encoding="UTF-8" standalone="no"?>
<svg width="48" height="46" viewBox="0 0 48 46" fill="none" xmlns="http://www.w3.org/2000/svg">
<path d="M22.5 19V13H26.5V19H31.5V11H34.5L24.5 2L14.5 11H17.5V19H22.5Z" fill="black"/>
<path d="M16.112 34.324V43H14.96V39.196H10.412V43H9.248V34.324H10.412V38.092H14.96V34.324H16.112ZM17.9033 40.468C17.9033 39.972 18.0193 39.524 18.2513 39.124C18.4913 38.724 18.8193 38.408 19.2353 38.176C19.6513 37.944 20.1233 37.828 20.6513 37.828C21.1953 37.828 21.6713 37.944 22.0793 38.176C22.4873 38.408 22.8033 38.724 23.0273 39.124C23.2513 39.524 23.3633 39.972 23.3633 40.468C23.3633 40.964 23.2513 41.416 23.0273 41.824C22.8033 42.224 22.4833 42.54 22.0673 42.772C21.6593 43.004 21.1833 43.12 20.6393 43.12C20.1113 43.12 19.6393 43.012 19.2233 42.796C18.8153 42.572 18.4913 42.264 18.2513 41.872C18.0193 41.472 17.9033 41.004 17.9033 40.468ZM19.0193 40.48C19.0193 40.8 19.0913 41.092 19.2353 41.356C19.3793 41.612 19.5713 41.816 19.8113 41.968C20.0593 42.12 20.3313 42.196 20.6273 42.196C20.9393 42.196 21.2153 42.12 21.4553 41.968C21.7033 41.816 21.8953 41.612 22.0313 41.356C22.1673 41.092 22.2353 40.8 22.2353 40.48C22.2353 40.16 22.1673 39.872 22.0313 39.616C21.8953 39.352 21.7033 39.144 21.4553 38.992C21.2153 38.832 20.9393 38.752 20.6273 38.752C20.3233 38.752 20.0473 38.832 19.7993 38.992C19.5593 39.152 19.3673 39.364 19.2233 39.628C19.0873 39.884 19.0193 40.168 19.0193 40.48ZM25.8703 38.032L25.9663 39.148L25.9183 39.052C26.1023 38.676 26.3623 38.38 26.6983 38.164C27.0423 37.948 27.4343 37.84 27.8743 37.84C28.1543 37.84 28.4023 37.884 28.6183 37.972C28.8343 38.06 29.0103 38.188 29.1463 38.356C29.2903 38.516 29.3823 38.716 29.4223 38.956L29.3623 38.992C29.5543 38.632 29.8183 38.352 30.1543 38.152C30.4983 37.944 30.8583 37.84 31.2343 37.84C31.7223 37.84 32.1063 37.98 32.3863 38.26C32.6743 38.532 32.8223 38.888 32.8303 39.328V43H31.7143V39.724C31.7063 39.468 31.6423 39.256 31.5223 39.088C31.4103 38.912 31.2103 38.816 30.9223 38.8C30.6343 38.8 30.3743 38.888 30.1423 39.064C29.9183 39.24 29.7423 39.468 29.6143 39.748C29.4863 40.02 29.4183 40.316 29.4103 40.636V43H28.2943V39.724C28.2863 39.468 28.2183 39.256 28.0903 39.088C27.9703 38.912 27.7663 38.816 27.4783 38.8C27.1823 38.8 26.9223 38.888 26.6983 39.064C26.4743 39.24 26.2983 39.468 26.1703 39.748C26.0503 40.028 25.9903 40.328 25.9903 40.648V43H24.8743V38.032H25.8703ZM37.0807 43.12C36.5127 43.12 36.0247 43.008 35.6167 42.784C35.2087 42.552 34.8927 42.24 34.6687 41.848C34.4527 41.448 34.3447 40.992 34.3447 40.48C34.3447 39.992 34.4687 39.548 34.7167 39.148C34.9647 38.748 35.2967 38.428 35.7127 38.188C36.1287 37.948 36.5927 37.828 37.1047 37.828C37.7607 37.828 38.3047 38.02 38.7367 38.404C39.1687 38.788 39.4607 39.316 39.6127 39.988L35.5207 41.428L35.2567 40.768L38.6167 39.544L38.3767 39.7C38.2807 39.436 38.1207 39.208 37.8967 39.016C37.6727 38.816 37.3807 38.716 37.0207 38.716C36.7167 38.716 36.4447 38.792 36.2047 38.944C35.9647 39.088 35.7767 39.288 35.6407 39.544C35.5047 39.8 35.4367 40.092 35.4367 40.42C35.4367 40.764 35.5087 41.068 35.6527 41.332C35.7967 41.588 35.9927 41.792 36.2407 41.944C36.4967 42.088 36.7847 42.16 37.1047 42.16C37.3207 42.16 37.5287 42.12 37.7287 42.04C37.9367 41.96 38.1287 41.856 38.3047 41.728L38.8207 42.556C38.5727 42.724 38.2927 42.86 37.9807 42.964C37.6767 43.068 37.3767 43.12 37.0807 43.12Z" fill="black"/>
</svg>
